# xmcd
#
# Track frame offsets:
#	150
#	12790
#	25111
#	35690
#	48007
#	57362
#	69363
#	79446
#	91138
#	103267
#	112406
#	123146
#	134058
#	147735
#	162229
#	175024
#	185303
#	199005
#	208824
#	218373
#
# Disc length: 3150 seconds
#
# Revision: 1
# Processed by: cddbd v1.5.2PL0 Copyright (c) Steve Scherf et al.
# Submitted via: EasyCDDAExtractor 10.0.2.1
#
DISCID=200c4c14
DTITLE=Various Artist - Essential Porter Wagoner
DYEAR=1997
DGENRE=Country
TTITLE0=Porter Wagoner - A Satisfied Mind
TTITLE1=Porter Wagoner - Company's Comin'
TTITLE2=Porter Wagoner - Eat, Drink, and Be Merry (For Tomorrow You'll Cry)
TTITLE3=Porter Wagoner - What Would You Do (If Jesus Came to Your House)
TTITLE4=Porter Wagoner - Tryin' to Forget the Blues
TTITLE5=Porter Wagoner - I Thought I Heard You Calling My Name
TTITLE6=Porter Wagoner - Your Old Love Letters
TTITLE7=Porter Wagoner - Misery Loves Company
TTITLE8=Porter Wagoner - I've Enjoyed as Much of This as I Can Stand
TTITLE9=Porter Wagoner - Sorrow on the Rocks
TTITLE10=Porter Wagoner - Green, Green Grass of Home
TTITLE11=Porter Wagoner - I'll Go Down Swinging
TTITLE12=Porter Wagoner - Skid Row Joe
TTITLE13=Porter Wagoner - The Cold Hard Facts of Life
TTITLE14=Porter Wagoner - The Carroll County Accident
TTITLE15=Porter Wagoner - Big Wind
TTITLE16=Porter Wagoner - The Last One to Touch Me
TTITLE17=Porter Wagoner - What Ain't to Be, Just Might Happen
TTITLE18=Porter Wagoner - Highway Headin' South
TTITLE19=Porter Wagoner and Merle Haggard - I Haven't Learned a Thing (w Merle H
TTITLE19=aggard)
EXTD=
EXTT0=
EXTT1=
EXTT2=
EXTT3=
EXTT4=
EXTT5=
EXTT6=
EXTT7=
EXTT8=
EXTT9=
EXTT10=
EXTT11=
EXTT12=
EXTT13=
EXTT14=
EXTT15=
EXTT16=
EXTT17=
EXTT18=
EXTT19=
PLAYORDER=
